# xmcd CD database file
#
# Track frame offsets:
#	150
#	28704
#	52783
#	87090
#	112261
#	146807
#	179208
#
# Disc length: 2784 seconds
#
# Revision: 0
# Processed by: cddbd v1.5.1PL2 Copyright (c) Steve Scherf et al.
# Submitted via: CDex 1.51
#
DISCID=620ade07
DTITLE=MJQ - The Last Concert Disc 1
DYEAR=1974
DGENRE=Jazz
TTITLE0=Softly as in a Morning Sunrise
TTITLE1=The Cylinder
TTITLE2=Summertime
TTITLE3=Travellin'
TTITLE4=Blues in A Minor
TTITLE5=One Never Knows
TTITLE6=Bag's Groove
EXTD=YEAR: 1974
EXTT0=
EXTT1=
EXTT2=
EXTT3=
EXTT4=
EXTT5=
EXTT6=
PLAYORDER=
